<svg width="60" height="60" viewBox="0 0 60 60" fill="none" xmlns="http://www.w3.org/2000/svg">
<path d="M19.2857 26.25C19.2857 25.3354 19.4658 24.4298 19.8158 23.5849C20.1658 22.7399 20.6788 21.9722 21.3255 21.3255C22.6315 20.0194 24.4029 19.2857 26.25 19.2857H33.75C34.6645 19.2857 35.5701 19.4658 36.4151 19.8158C37.26 20.1658 38.0278 20.6788 38.6745 21.3255C39.3212 21.9722 39.8342 22.7399 40.1841 23.5849C40.5341 24.4298 40.7143 25.3354 40.7143 26.25C40.7143 27.2445 40.3192 28.1984 39.6159 28.9016C38.9127 29.6049 37.9588 30 36.9643 30H23.0357C22.0411 30 21.0873 29.6049 20.384 28.9016C19.6808 28.1984 19.2857 27.2445 19.2857 26.25ZM26.25 22.5C25.2554 22.5 24.3016 22.8951 23.5983 23.5983C22.8951 24.3016 22.5 25.2554 22.5 26.25C22.5 26.5457 22.74 26.7857 23.0357 26.7857H36.9643C37.1063 26.7857 37.2426 26.7293 37.3431 26.6288C37.4435 26.5283 37.5 26.3921 37.5 26.25C37.5 25.2554 37.1049 24.3016 36.4016 23.5983C35.6984 22.8951 34.7445 22.5 33.75 22.5H26.25ZM30 4.28571C27.4561 4.28576 24.9952 5.19075 23.0574 6.83882C21.1196 8.4869 19.8313 10.7706 19.4228 13.2814C16.1367 15.0819 13.3954 17.7332 11.4862 20.9574C9.57698 24.1816 8.57022 27.8601 8.57141 31.6071V47.6786C8.57141 49.8098 9.41803 51.8537 10.925 53.3607C12.432 54.8677 14.4759 55.7143 16.6071 55.7143H43.3928C45.524 55.7143 47.568 54.8677 49.0749 53.3607C50.5819 51.8537 51.4285 49.8098 51.4285 47.6786V31.6071C51.4297 27.8601 50.423 24.1816 48.5138 20.9574C46.6046 17.7332 43.8633 15.0819 40.5771 13.2814C40.1687 10.7706 38.8803 8.4869 36.9425 6.83882C35.0047 5.19075 32.5438 4.28576 30 4.28571ZM29.4643 10.7143C27.315 10.7143 25.2428 11.0378 23.2928 11.64C23.9159 10.3948 24.8734 9.34757 26.058 8.61571C27.2426 7.88385 28.6075 7.49621 30 7.49621C31.3924 7.49621 32.7574 7.88385 33.942 8.61571C35.1265 9.34757 36.084 10.3948 36.7071 11.64C34.7079 11.0241 32.6276 10.7121 30.5357 10.7143H29.4643ZM29.4643 13.9286H30.5357C32.8573 13.9286 35.1561 14.3858 37.301 15.2743C39.4459 16.1627 41.3947 17.4649 43.0363 19.1065C44.6779 20.7481 45.9801 22.697 46.8686 24.8418C47.757 26.9867 48.2143 29.2855 48.2143 31.6071V34.2857H11.7857V31.6071C11.7857 26.9185 13.6483 22.4219 16.9636 19.1065C20.279 15.7911 24.7756 13.9286 29.4643 13.9286ZM19.2857 37.5V41.25C19.2857 41.6762 19.455 42.085 19.7564 42.3864C20.0578 42.6878 20.4666 42.8571 20.8928 42.8571C21.3191 42.8571 21.7279 42.6878 22.0293 42.3864C22.3307 42.085 22.5 41.6762 22.5 41.25V37.5H48.2143V47.6786C48.2143 48.9573 47.7063 50.1836 46.8021 51.0878C45.8979 51.992 44.6716 52.5 43.3928 52.5H16.6071C15.3284 52.5 14.1021 51.992 13.1979 51.0878C12.2937 50.1836 11.7857 48.9573 11.7857 47.6786V37.5H19.2857Z" fill="#343434"/>
<circle cx="46" cy="18" r="5" fill="#FF6B00" stroke="#343434" stroke-width="2"/>
</svg>
