<svg width="110" height="118" viewBox="0 0 110 118" fill="none" xmlns="http://www.w3.org/2000/svg">
<rect width="110" height="110" rx="16" fill="#FF6B00"/>
<path d="M49.7 98.35C46.4 98.35 43.3667 97.5833 40.6 96.05C37.8667 94.5167 35.6833 92.3833 34.05 89.65C32.45 86.8833 31.65 83.7833 31.65 80.35C31.65 76.9167 32.45 73.8333 34.05 71.1C35.6833 68.3667 37.8667 66.2333 40.6 64.7C43.3667 63.1667 46.4 62.4 49.7 62.4C53 62.4 56.0167 63.1667 58.75 64.7C61.5167 66.2333 63.6833 68.3667 65.25 71.1C66.85 73.8333 67.65 76.9167 67.65 80.35C67.65 83.7833 66.85 86.8833 65.25 89.65C63.65 92.3833 61.4833 94.5167 58.75 96.05C56.0167 97.5833 53 98.35 49.7 98.35ZM49.7 90.55C52.5 90.55 54.7333 89.6167 56.4 87.75C58.1 85.8833 58.95 83.4167 58.95 80.35C58.95 77.25 58.1 74.7833 56.4 72.95C54.7333 71.0833 52.5 70.15 49.7 70.15C46.8667 70.15 44.6 71.0667 42.9 72.9C41.2333 74.7333 40.4 77.2167 40.4 80.35C40.4 83.45 41.2333 85.9333 42.9 87.8C44.6 89.6333 46.8667 90.55 49.7 90.55ZM93.6566 80C95.69 80.4333 97.3233 81.45 98.5566 83.05C99.79 84.6167 100.407 86.4167 100.407 88.45C100.407 91.3833 99.3733 93.7167 97.3066 95.45C95.2733 97.15 92.4233 98 88.7566 98H72.4066V62.9H88.2066C91.7733 62.9 94.5566 63.7167 96.5566 65.35C98.59 66.9833 99.6066 69.2 99.6066 72C99.6066 74.0667 99.0566 75.7833 97.9566 77.15C96.89 78.5167 95.4566 79.4667 93.6566 80ZM80.9566 77.1H86.5566C87.9566 77.1 89.0233 76.8 89.7566 76.2C90.5233 75.5667 90.9066 74.65 90.9066 73.45C90.9066 72.25 90.5233 71.3333 89.7566 70.7C89.0233 70.0667 87.9566 69.75 86.5566 69.75H80.9566V77.1ZM87.2566 91.1C88.69 91.1 89.79 90.7833 90.5566 90.15C91.3566 89.4833 91.7566 88.5333 91.7566 87.3C91.7566 86.0667 91.34 85.1 90.5066 84.4C89.7066 83.7 88.59 83.35 87.1566 83.35H80.9566V91.1H87.2566Z" fill="#343434"/>
</svg>
