<svg width="36" height="36" viewBox="0 0 36 36" fill="none" xmlns="http://www.w3.org/2000/svg">
<path d="M30.9714 31.4554L24.6468 25.1308M24.6468 25.1308C25.7286 24.0489 26.5868 22.7646 27.1723 21.351C27.7578 19.9375 28.0592 18.4225 28.0592 16.8926C28.0592 15.3626 27.7578 13.8476 27.1723 12.4341C26.5868 11.0206 25.7286 9.73621 24.6468 8.65435C23.5649 7.57249 22.2806 6.71432 20.8671 6.12882C19.4535 5.54333 17.9385 5.24197 16.4086 5.24197C14.8786 5.24197 13.3636 5.54333 11.9501 6.12882C10.5366 6.71432 9.25221 7.57249 8.17036 8.65435C5.98545 10.8393 4.75798 13.8026 4.75798 16.8926C4.75798 19.9825 5.98545 22.9459 8.17036 25.1308C10.3553 27.3157 13.3186 28.5431 16.4086 28.5431C19.4985 28.5431 22.4619 27.3157 24.6468 25.1308Z" stroke="#878787" stroke-width="2.79607" stroke-linecap="round" stroke-linejoin="round"/>
</svg>
